<svg width="99" height="72" viewBox="0 0 99 72" fill="none" xmlns="http://www.w3.org/2000/svg">
<path fill-rule="evenodd" clip-rule="evenodd" d="M68.5395 0C72.0719 0 75.2353 1.69714 77.1333 4.32L98.0115 33.0171C99.3295 34.8171 99.3295 37.1829 98.0115 38.9829L77.1333 67.68C75.2353 70.3029 72.0719 72 68.5395 72L10.5445 71.9486C4.74504 71.9486 0 67.3714 0 61.7143V10.2857C0 4.62857 4.74504 0.0514297 10.5445 0.0514297L68.5395 0ZM85 41C87.7614 41 90 38.7614 90 36C90 33.2386 87.7614 31 85 31C82.2386 31 80 33.2386 80 36C80 38.7614 82.2386 41 85 41Z" fill="white"/>
</svg>
