<svg width="92" height="92" viewBox="0 0 92 92" fill="none" xmlns="http://www.w3.org/2000/svg">
<path d="M92 35.0309V85.3172C92 87.0896 91.2959 88.7894 90.0427 90.0427C88.7894 91.2959 87.0896 92 85.3172 92H35.0504C33.278 92 31.5782 91.2959 30.325 90.0427C29.0717 88.7894 28.3676 87.0896 28.3676 85.3172V63.6324H58.2939C59.7116 63.6324 61.0714 63.0705 62.0757 62.07C63.0799 61.0694 63.6467 59.7116 63.6518 58.2939V28.2702H85.3172C86.2014 28.2702 87.0768 28.4456 87.8927 28.7863C88.7086 29.127 89.4488 29.6262 90.0704 30.255C90.692 30.8839 91.1826 31.6298 91.5138 32.4496C91.8451 33.2694 92.0103 34.1468 92 35.0309ZM63.6518 5.3579V28.2702H35.0504C33.278 28.2702 31.5782 28.9743 30.325 30.2276C29.0717 31.4808 28.3676 33.1806 28.3676 34.953V63.5544H5.3579C3.9369 63.5544 2.57409 62.9899 1.56929 61.9851C0.564491 60.9803 0 59.6175 0 58.1965L0 5.3579C0 3.9369 0.564491 2.57409 1.56929 1.56929C2.57409 0.564491 3.9369 0 5.3579 0L58.2939 0C59.7149 0 61.0777 0.564491 62.0825 1.56929C63.0873 2.57409 63.6518 3.9369 63.6518 5.3579Z" fill="white"/>
</svg>
