<svg width="102" height="92" viewBox="0 0 102 92" fill="none" xmlns="http://www.w3.org/2000/svg">
<path d="M14.54 84.9251L94.523 4.94206M25.471 53.1985C28.4159 56.1434 28.4159 60.918 25.471 63.8629C22.5261 66.8078 17.7515 66.8078 14.8066 63.8629C11.8617 60.918 11.8617 56.1434 14.8066 53.1985C17.7515 50.2536 22.5261 50.2536 25.471 53.1985ZM39.3348 39.3348C42.2796 42.2796 42.2796 47.0543 39.3348 49.9991C36.3899 52.944 31.6152 52.944 28.6703 49.9991C25.7255 47.0543 25.7255 42.2796 28.6703 39.3348C31.6152 36.3899 36.3899 36.3899 39.3348 39.3348ZM73.4608 5.20867C76.4057 8.15356 76.4057 12.9282 73.4608 15.8731C70.5159 18.818 65.7413 18.818 62.7964 15.8731C59.8515 12.9282 59.8515 8.15356 62.7964 5.20867C65.7413 2.26378 70.5159 2.26378 73.4608 5.20867ZM15.8731 32.9361C18.818 35.881 18.818 40.6556 15.8731 43.6005C12.9282 46.5454 8.15356 46.5454 5.20867 43.6005C2.26378 40.6556 2.26378 35.881 5.20867 32.9361C8.15356 29.9912 12.9282 29.9912 15.8731 32.9361ZM48.3995 76.1269C45.4546 73.182 40.68 73.182 37.7351 76.1269C34.7902 79.0718 34.7902 83.8464 37.7351 86.7913C40.68 89.7362 45.4546 89.7362 48.3995 86.7913C51.3444 83.8464 51.3444 79.0718 48.3995 76.1269ZM62.2632 62.2632C59.3183 59.3183 54.5437 59.3183 51.5988 62.2632C48.6539 65.2081 48.6539 69.9827 51.5988 72.9276C54.5437 75.8725 59.3183 75.8725 62.2632 72.9276C65.2081 69.9827 65.2081 65.2081 62.2632 62.2632ZM96.3893 28.1371C93.4444 25.1922 88.6698 25.1922 85.7249 28.1371C82.78 31.082 82.78 35.8566 85.7249 38.8015C88.6698 41.7464 93.4444 41.7464 96.3893 38.8015C99.3342 35.8566 99.3342 31.082 96.3893 28.1371ZM93.19 61.1968C90.2451 58.2519 85.4705 58.2519 82.5256 61.1968C79.5807 64.1417 79.5807 68.9163 82.5256 71.8612C85.4705 74.8061 90.2451 74.8061 93.19 71.8612C96.1349 68.9163 96.1349 64.1417 93.19 61.1968Z" stroke="white" stroke-width="5.26"/>
</svg>
