<svg width="102" height="87" viewBox="0 0 102 87" fill="none" xmlns="http://www.w3.org/2000/svg">
<path d="M76.9743 26.4537H81.6663V41.0499L102 20.5275L81.6612 0V12.1737H76.9692C58.1298 12.1737 47.5116 26.1375 38.1378 38.4489C29.7126 49.5261 22.4298 59.0988 10.6692 59.0988H0V73.3737H10.6743C29.5137 73.3737 40.1319 59.4201 49.5057 47.0985C57.9309 36.0162 65.2137 26.4537 76.9743 26.4537ZM27.591 35.4501C28.3968 34.4148 29.2026 33.3489 30.0237 32.2728C32.0937 29.5143 34.2226 26.8005 36.4089 24.1332C29.6667 17.8398 21.5424 13.1988 10.6743 13.1988H0V27.4737H10.6743C17.442 27.4737 22.7205 30.651 27.591 35.4501ZM81.6612 60.1137H76.9692C69.7935 60.1137 64.2855 56.5386 59.1651 51.2499L57.6198 53.2746C55.3707 56.2326 52.9533 59.3997 50.2809 62.5464C57.1965 69.2988 65.5809 74.3988 76.9641 74.3988H81.6561V86.6286L102 66.1011L81.6612 45.5736V60.1137Z" fill="white"/>
</svg>
