<svg width="102" height="92" viewBox="0 0 102 92" fill="none" xmlns="http://www.w3.org/2000/svg">
<path d="M54.602 60.145L42.918 48.599L43.056 48.461C51.06 39.537 56.764 29.279 60.122 18.423H73.6V9.2H41.4V0H32.2V9.2H0V18.354H51.382C48.2059 27.459 43.2489 35.8406 36.8 43.01C32.6074 38.3538 29.0356 33.174 26.174 27.6H16.974C20.332 35.098 24.932 42.182 30.682 48.576L7.291 71.691L13.8 78.2L36.8 55.2L51.106 69.506L54.602 60.145ZM80.5 36.8H71.3L50.6 92H59.8L64.975 78.2H86.825L92 92H101.2L80.5 36.8ZM68.425 69L75.9 49.059L83.375 69H68.425Z" fill="white"/>
</svg>
