<svg width="156" height="88" viewBox="0 0 156 88" fill="none" xmlns="http://www.w3.org/2000/svg">
<path fill-rule="evenodd" clip-rule="evenodd" d="M70.4 30.536C70.3542 30.1318 70.2657 29.7336 70.136 29.348V28.952C69.9245 28.4996 69.6423 28.0837 69.3 27.72L42.9 1.32C42.5363 0.977751 42.1204 0.695556 41.668 0.484C41.5367 0.465344 41.4033 0.465344 41.272 0.484C40.825 0.227662 40.3314 0.0631145 39.82 0H13.2C9.69914 0 6.34167 1.39071 3.86619 3.86619C1.39071 6.34167 0 9.69915 0 13.2V74.8C0 78.3009 1.39071 81.6583 3.86619 84.1338C6.34167 86.6093 9.69914 88 13.2 88H57.2C60.7009 88 64.0583 86.6093 66.5338 84.1338C69.0093 81.6583 70.4 78.3009 70.4 74.8V30.8V30.536ZM26.4 35.2H22C20.8331 35.2 19.7139 34.7364 18.8887 33.9113C18.0636 33.0861 17.6 31.967 17.6 30.8C17.6 29.6331 18.0636 28.5139 18.8887 27.6887C19.7139 26.8636 20.8331 26.4 22 26.4H26.4C27.567 26.4 28.6861 26.8636 29.5113 27.6887C30.3364 28.5139 30.8 29.6331 30.8 30.8C30.8 31.967 30.3364 33.0861 29.5113 33.9113C28.6861 34.7364 27.567 35.2 26.4 35.2ZM18.8887 45.2887C19.7139 44.4636 20.8331 44 22 44H48.4C49.567 44 50.6861 44.4636 51.5113 45.2887C52.3364 46.1139 52.8 47.2331 52.8 48.4C52.8 49.567 52.3364 50.6861 51.5113 51.5113C50.6861 52.3364 49.567 52.8 48.4 52.8H22C20.8331 52.8 19.7139 52.3364 18.8887 51.5113C18.0636 50.6861 17.6 49.567 17.6 48.4C17.6 47.2331 18.0636 46.1139 18.8887 45.2887ZM22 61.6H48.4C49.567 61.6 50.6861 62.0636 51.5113 62.8887C52.3364 63.7139 52.8 64.8331 52.8 66C52.8 67.167 52.3364 68.2861 51.5113 69.1113C50.6861 69.9364 49.567 70.4 48.4 70.4H22C20.8331 70.4 19.7139 69.9364 18.8887 69.1113C18.0636 68.2861 17.6 67.167 17.6 66C17.6 64.8331 18.0636 63.7139 18.8887 62.8887C19.7139 62.0636 20.8331 61.6 22 61.6Z" fill="white"/>
<path d="M106.64 10H91L91 78H106.64" stroke="white" stroke-width="6.8"/>
<path d="M136.56 10H152.2V78H136.56" stroke="white" stroke-width="6.8"/>
<path d="M114.035 33.7675L114.141 35.935C114.609 35.1275 115.218 34.4971 115.969 34.0438C116.734 33.5904 117.655 33.3567 118.731 33.3425C119.34 33.3425 119.886 33.4133 120.367 33.555C120.863 33.6825 121.295 33.8738 121.664 34.1288C121.933 34.3271 122.174 34.5679 122.386 34.8513C122.613 35.1346 122.804 35.4533 122.96 35.8075C123.158 35.4817 123.392 35.1771 123.661 34.8938C123.93 34.6104 124.221 34.3625 124.532 34.15C124.929 33.9092 125.368 33.7179 125.85 33.5763C126.346 33.4346 126.884 33.3567 127.465 33.3425C128.258 33.3425 128.974 33.4629 129.611 33.7038C130.249 33.9304 130.787 34.2704 131.226 34.7238C131.708 35.2338 132.076 35.8996 132.331 36.7213C132.586 37.5288 132.714 38.485 132.714 39.59V56.76H128.974V39.5475C128.974 39.0658 128.917 38.6408 128.804 38.2725C128.69 37.9042 128.527 37.5996 128.315 37.3588C128.088 37.1321 127.805 36.9621 127.465 36.8488C127.139 36.7354 126.757 36.6788 126.317 36.6788C125.85 36.6788 125.446 36.7425 125.106 36.87C124.766 36.9975 124.483 37.1675 124.256 37.38C124.03 37.6067 123.852 37.8688 123.725 38.1663C123.597 38.4496 123.512 38.7683 123.47 39.1225C123.47 39.1933 123.47 39.2642 123.47 39.335C123.47 39.3917 123.47 39.4625 123.47 39.5475V56.76H119.73V39.5263C119.73 39.0446 119.673 38.6196 119.56 38.2513C119.461 37.8829 119.298 37.5783 119.071 37.3375C118.859 37.1108 118.59 36.9479 118.264 36.8488C117.952 36.7354 117.584 36.6788 117.159 36.6788C116.691 36.6788 116.28 36.7354 115.926 36.8488C115.586 36.9479 115.296 37.0967 115.055 37.295C114.871 37.4508 114.708 37.6279 114.566 37.8263C114.439 38.0246 114.332 38.2371 114.247 38.4638V56.76H110.507V33.7675H114.035Z" fill="white"/>
</svg>
